PathFileType	4	(X/Y/Z)	C:\Users\WrightLab\Desktop\Jo\P2_Trial12.trc
DataRate	CameraRate	NumFrames	NumMarkers	Units	OrigDataRate	OrigDataStartFrame	OrigNumFrames
100.00	100.00	       19	19	mm	100.00	327	       653
Frame#	Time	Headset_Front			Headset_Back			Headset_Left			Headset_Right			Left_Shoulder			Right_Shoulder			Sternum			C7			Left Elbow			Right Elbow			Left Wrist			Right Wrist			Left ASIS			Right ASIS			S2			Left Knee			Right Knee			Left Ankle			Right Ankle			
		X1	Y1	Z1	X2	Y2	Z2	X3	Y3	Z3	X4	Y4	Z4	X5	Y5	Z5	X6	Y6	Z6	X7	Y7	Z7	X8	Y8	Z8	X9	Y9	Z9	X10	Y10	Z10	X11	Y11	Z11	X12	Y12	Z12	X13	Y13	Z13	X14	Y14	Z14	X15	Y15	Z15	X16	Y16	Z16	X17	Y17	Z17	X18	Y18	Z18	X19	Y19	Z19	

327	3.260	162.12958	1466.14954	1080.72229	113.74381	1670.51086	856.22406	243.80226	1580.76892	923.73474	40.99105	1530.63342	1020.78436	251.65199	1429.75647	771.56897	-46.32022	1433.36511	912.45764	133.58104	1313.71729	907.07245	50.79825	1422.15515	751.54858	407.61136	1105.54590	795.80963	-209.47939	1141.58044	814.74194	484.06985	899.97375	875.91193	-306.27460	916.21796	764.55463	215.48584	1030.17725	897.45129	109.49292	1008.32178	975.65747	26.71570	930.04523	718.49146	187.03619	470.63831	577.89880	123.32348	570.81549	1023.18762	110.37431	164.83611	403.18118	223.39201	161.29573	1132.12939	
328	3.270	165.84435	1466.47363	1092.17883	118.12023	1670.73645	866.91077	247.91327	1580.80676	935.98474	44.90228	1530.52686	1030.70642	257.84021	1430.17700	784.73834	-41.26593	1436.99951	922.12048	138.55421	1316.21118	921.77728	57.40577	1423.33752	762.25970	411.52023	1104.64258	807.86108	-201.55908	1142.56970	824.29004	484.54413	898.65363	888.91522	-295.54059	915.47113	775.92218	218.70422	1032.94897	911.68353	111.73207	1011.73840	988.16614	33.49967	930.76276	729.07263	194.46733	473.21918	593.70300	125.07841	573.26898	1040.45581	118.20705	169.77177	415.02118	218.79120	160.61427	1134.90540	
329	3.280	169.58670	1467.78284	1103.91223	122.98438	1671.27576	877.47205	252.29269	1582.29590	947.35931	48.32934	1530.78503	1041.48938	263.36703	1430.21509	797.13165	-36.84168	1439.52417	930.81085	142.26851	1317.13245	933.47351	63.95473	1424.09863	772.34576	415.46234	1103.40540	819.40448	-193.90872	1143.56775	833.52643	485.28244	896.67932	901.60577	-285.05963	914.68231	787.57709	221.70691	1035.33362	926.07843	112.98106	1015.40039	1001.14746	39.82497	931.09631	740.77655	200.95908	475.44785	610.41968	127.00852	574.64996	1054.20862	124.83469	176.10428	427.87985	216.14934	159.64857	1136.20032	
330	3.290	172.33005	1468.35974	1114.73083	127.61696	1671.97803	888.23462	256.81442	1583.00879	959.05133	52.35254	1532.00818	1051.74048	268.30954	1430.39551	809.20612	-32.29157	1441.71423	939.39038	145.16013	1318.32104	945.51654	70.26958	1424.69153	782.61578	419.25052	1102.61926	831.67188	-186.65266	1144.48779	843.27850	487.18671	893.77039	906.03998	-274.52853	913.69000	799.47504	223.98598	1037.60034	939.01038	115.45326	1018.30914	1013.08929	45.47644	930.57062	752.63824	208.91389	477.20319	628.28705	127.43478	575.51270	1069.54065	132.17339	184.22971	444.47983	213.50586	158.44797	1138.23743	
331	3.300	175.71574	1469.76477	1125.69556	132.08147	1673.25293	899.07861	260.34058	1584.95764	971.27869	55.53832	1533.07336	1062.12964	273.77078	1429.84753	821.73938	-27.89995	1443.48657	948.30060	149.21515	1319.61902	956.40082	76.41740	1425.22852	792.29053	420.88223	1100.41162	842.82935	-179.11081	1144.79163	852.06000	487.61990	895.50848	927.06158	-265.26318	912.45520	811.28461	227.70250	1039.60217	952.18134	117.52539	1020.53381	1024.18347	51.49881	931.18237	762.89984	218.10999	477.16492	651.02936	129.70438	574.08197	1085.42358	139.17972	193.40990	460.51434	212.39178	157.49763	1139.04822	
332	3.310	178.87729	1470.23816	1135.49805	136.59561	1674.76147	909.71539	264.54138	1585.73340	982.16345	58.88939	1534.74585	1072.11865	278.94678	1430.05762	833.31439	-23.46375	1445.50635	956.70911	152.38431	1321.35730	967.67462	82.45016	1426.13403	801.95380	424.48849	1099.66028	855.27393	-172.34868	1145.37708	861.51031	489.27362	893.37592	939.50909	-255.75250	911.38770	823.46808	230.55591	1040.19641	963.84039	119.79914	1021.80499	1035.51746	56.31837	931.46423	774.19806	229.42130	476.76001	673.92883	130.05908	573.76489	1099.63257	145.91258	202.48402	478.19165	210.72623	155.51424	1140.03577	
333	3.320	181.08884	1471.69214	1146.46399	140.87190	1676.35815	920.51575	269.24826	1587.47388	993.56421	62.29181	1535.30481	1081.47729	284.53549	1430.93091	844.19073	-19.45390	1447.19641	965.68683	155.73776	1322.98572	978.20148	87.53705	1427.14392	812.16492	427.75058	1099.02222	867.25952	-165.56665	1145.45361	870.46851	490.54205	892.46051	951.55597	-246.65186	910.03070	835.99915	233.92337	1041.41699	976.18671	123.00613	1023.04028	1047.48706	60.56403	931.91040	786.19464	240.00938	474.92798	696.94122	130.47066	572.61328	1113.91272	153.89633	211.27219	496.86008	209.86127	153.32114	1140.39355	
334	3.330	183.60779	1472.70276	1156.50330	146.22572	1677.88940	930.71655	272.48758	1588.70862	1005.59796	65.01292	1536.37000	1090.53943	289.87732	1431.47485	856.43286	-15.63758	1448.49988	974.18341	159.95317	1324.68347	988.75659	92.90295	1428.20532	821.87476	430.17526	1098.88354	879.90179	-159.29533	1145.86389	879.96442	491.19617	890.85516	963.23773	-237.99480	908.64166	848.29388	237.59688	1042.25610	987.68048	126.65677	1022.47797	1057.70190	64.72507	932.16522	797.30200	252.13837	475.04733	720.28918	129.49185	571.82874	1126.47998	162.99364	220.07898	516.42340	208.66333	150.23157	1141.23633	
335	3.340	186.11583	1474.22144	1166.39087	149.95438	1679.71106	940.76129	276.72919	1591.33789	1016.22491	68.47614	1537.52014	1099.00549	295.07596	1432.95850	865.89520	-11.64215	1449.97534	983.03406	163.25627	1326.56824	998.99280	98.13467	1429.34167	831.29834	433.60834	1098.83984	892.92139	-152.95660	1145.35388	888.53925	493.28229	889.48181	975.03870	-228.83031	906.92157	861.27301	240.74641	1043.40125	998.84869	129.19284	1023.49500	1069.08618	69.25692	933.40784	808.81720	265.33536	476.65616	741.67914	127.96196	571.36188	1137.70593	173.25153	229.45802	536.05969	208.03549	147.38820	1142.46863	
336	3.350	189.31213	1476.52649	1179.21631	154.88879	1681.89441	950.80109	280.80368	1593.09204	1027.84277	71.77611	1539.43591	1107.63293	299.82684	1434.26074	876.27490	-8.14623	1452.09253	991.87268	167.62730	1327.87256	1009.51361	103.05769	1430.71301	840.85114	436.28259	1099.12622	905.03033	-146.80112	1146.28967	899.55139	494.46802	886.58228	978.78772	-220.63083	905.63446	874.28259	244.92613	1044.70105	1010.53674	133.95531	1022.84119	1079.90942	73.05249	935.53082	819.51770	280.62927	480.32718	762.37457	125.80131	570.03082	1148.95068	185.09021	237.97595	557.63989	207.82892	145.48920	1142.53699	
337	3.360	191.04059	1478.37524	1189.07617	159.48488	1683.99268	960.38593	283.43793	1594.37964	1038.10754	74.09877	1541.98254	1116.91260	305.00458	1435.45581	888.07373	-3.96212	1453.42859	999.81354	170.77985	1330.23816	1019.35272	107.78880	1432.26624	850.40192	439.73404	1099.93323	917.79346	-141.09164	1146.69678	910.01270	496.29562	885.18695	989.18073	-212.41202	904.34308	887.67084	248.27051	1045.32520	1021.82410	136.50383	1024.23792	1090.43481	76.77740	936.75391	830.38678	295.70660	483.65573	782.69739	122.56982	569.24500	1158.12048	197.46204	246.02803	579.01807	207.59711	144.46478	1143.23401	
338	3.370	192.39742	1480.61169	1198.84851	164.32831	1686.10815	969.97455	287.25818	1596.24341	1048.53845	76.87048	1543.99573	1125.61169	309.19992	1437.15796	898.39197	-0.67430	1455.54797	1008.65637	174.31482	1332.38318	1030.03735	112.66637	1434.21423	859.58734	441.23364	1100.91675	930.27039	-136.25005	1147.71838	920.38538	496.53442	887.11115	1007.79248	-204.44354	903.58118	901.03992	252.58075	1047.15625	1033.49463	139.47632	1026.72974	1099.79236	81.26388	939.34180	841.03870	311.56866	485.76431	804.53076	118.57964	568.75836	1164.82312	210.35271	252.87956	601.22791	206.72095	144.55772	1143.64587	
339	3.380	194.09567	1482.98743	1208.77722	167.24361	1689.04431	980.09186	289.92767	1598.70105	1059.70605	79.45590	1546.82263	1134.32642	313.71829	1438.84851	908.89252	3.01891	1457.68518	1017.11780	177.58113	1334.63928	1040.06226	117.15413	1436.23218	869.21368	444.08447	1102.15759	942.90845	-131.12466	1147.98071	930.56250	497.79871	887.34290	1018.46869	-197.23674	903.27814	914.70148	255.75354	1049.10266	1044.70679	142.92543	1027.66003	1110.59717	85.78819	941.81567	849.78217	327.03897	487.43719	826.24060	114.03024	569.24683	1170.64380	223.07593	259.22946	622.44061	205.48296	144.05234	1143.98950	
340	3.390	195.35107	1485.45459	1218.19824	173.35184	1690.34070	988.49841	294.04587	1600.45288	1070.79016	81.42336	1549.28333	1143.03345	318.62305	1441.23413	919.89056	6.85073	1459.92297	1025.24609	181.50902	1336.70801	1049.89722	121.36899	1438.00122	878.76477	446.56015	1103.64160	955.12329	-125.65932	1149.05713	941.58795	500.31964	887.27686	1028.53296	-190.43095	903.04327	928.05212	258.54092	1051.68823	1056.13977	143.76546	1032.14099	1119.86682	89.98863	944.28778	859.21600	342.91360	487.92401	847.92603	109.80077	569.14099	1174.70374	237.01942	264.30569	645.16205	204.17444	144.12370	1144.90808	
341	3.400	197.00407	1487.63708	1228.03174	177.09880	1693.03259	998.29938	297.30219	1602.69885	1082.46143	83.84959	1552.30859	1151.66418	322.33112	1443.19104	930.96814	9.82470	1462.27307	1034.12476	184.37672	1338.81799	1059.76355	125.80316	1439.89661	888.17010	448.45630	1105.01489	967.21503	-120.81033	1150.70337	951.82245	502.53983	886.99023	1036.38855	-183.96085	903.68256	942.12671	261.51941	1054.36182	1068.00342	145.19904	1035.81726	1129.36206	94.89771	947.50891	867.56299	357.31482	488.23984	869.94794	105.56803	568.02881	1178.14050	251.68680	268.92209	668.06427	204.38142	142.85306	1145.77100	
342	3.410	198.00554	1490.35156	1237.68823	183.05324	1694.19519	1008.53821	300.52048	1604.87256	1092.84314	85.00052	1555.54932	1160.85632	326.01480	1445.79968	941.65106	13.46808	1465.04944	1042.15222	187.52591	1341.58667	1068.97900	130.34117	1442.22498	897.31427	453.35977	1107.92456	978.48224	-116.52554	1152.13013	963.04163	504.51111	887.02795	1045.97974	-177.87225	904.73578	955.92432	264.08624	1057.26428	1078.91577	146.65112	1038.91235	1139.16150	100.42194	950.30591	875.96906	373.24728	488.61316	892.33521	101.65887	567.20557	1180.69031	267.34167	273.40067	690.69171	202.22102	143.51784	1147.23804	
343	3.420	198.67711	1493.00122	1247.48279	185.51135	1698.04993	1017.16650	302.63486	1606.84778	1103.22009	87.29057	1558.48486	1169.16345	330.14398	1448.32056	952.48346	16.38642	1467.60315	1051.10718	190.32730	1343.76245	1078.63281	134.61403	1444.44788	906.65619	456.10321	1109.73999	989.48389	-111.30923	1153.71289	973.81219	506.65887	887.87170	1055.08374	-172.49724	905.54541	970.12659	265.83911	1060.96143	1090.70117	147.62329	1042.58069	1148.81812	106.03419	953.12860	884.47626	388.41440	488.96359	915.33575	98.20026	566.57397	1182.39612	283.79773	276.55960	714.81183	199.26398	142.77205	1145.77026	
344	3.430	199.37428	1495.93323	1257.37561	188.84071	1700.55896	1026.74121	304.58725	1609.04712	1114.26465	89.23078	1561.70740	1177.57666	334.09821	1451.20898	963.80322	19.89499	1470.10486	1059.46497	193.39317	1346.02527	1088.02893	138.79562	1446.97705	916.14191	459.18729	1111.77124	1000.53351	-108.41335	1155.99536	983.96625	509.39767	888.74152	1062.89832	-167.33080	907.56995	984.23981	266.72223	1063.61646	1100.84180	148.59352	1046.15820	1158.26428	111.65723	955.62421	892.64246	403.91931	488.57825	940.21362	95.71127	565.63635	1183.51624	300.53906	279.88095	738.56317	197.45099	142.87035	1150.42651	
345	3.440	199.94070	1498.57288	1267.19287	192.78223	1703.44031	1036.71216	307.87958	1611.40540	1124.87964	91.35915	1564.72375	1186.00830	337.74408	1453.67896	975.06970	23.27278	1472.64111	1068.39783	196.40201	1348.33679	1097.26465	142.34242	1449.40161	925.93939	462.72705	1114.49524	1011.24127	-104.18002	1158.11157	994.75842	512.30090	889.44922	1069.98828	-162.34776	909.30060	998.87347	267.75421	1066.73792	1112.20557	149.16586	1049.83765	1167.54041	117.79958	958.10004	901.45709	419.39050	488.50824	966.17633	92.78555	565.07782	1184.10620	317.97501	282.05634	763.18445	195.09601	141.55399	1151.54810	
